<svg width="252" height="34" viewBox="0 0 252 34" fill="none" xmlns="http://www.w3.org/2000/svg">
<path d="M96.375 2.83325H82.625C78.828 2.83325 75.75 6.00457 75.75 9.91659V24.0833C75.75 27.9953 78.828 31.1666 82.625 31.1666H96.375C100.172 31.1666 103.25 27.9953 103.25 24.0833V9.91659C103.25 6.00457 100.172 2.83325 96.375 2.83325Z" stroke="#7562E0" stroke-width="2" stroke-linecap="round" stroke-linejoin="round"/>
<path d="M95 16.1074C95.1697 17.2865 94.9742 18.4906 94.4414 19.5485C93.9086 20.6065 93.0656 21.4644 92.0322 22.0003C90.9989 22.5362 89.8279 22.7227 88.6857 22.5333C87.5435 22.344 86.4884 21.7884 85.6704 20.9456C84.8524 20.1028 84.3131 19.0157 84.1293 17.8389C83.9455 16.6621 84.1266 15.4556 84.6467 14.391C85.1668 13.3263 85.9995 12.4577 87.0263 11.9088C88.0532 11.3598 89.2219 11.1584 90.3662 11.3333C91.5335 11.5116 92.6142 12.072 93.4486 12.9317C94.283 13.7914 94.8269 14.9048 95 16.1074Z" stroke="#7562E0" stroke-width="2" stroke-linecap="round" stroke-linejoin="round"/>
<path d="M97.0625 9.20825H97.0763" stroke="#7562E0" stroke-width="2" stroke-linecap="round" stroke-linejoin="round"/>
<path d="M24.75 2.83325H20.625C18.8016 2.83325 17.053 3.57953 15.7636 4.90791C14.4743 6.2363 13.75 8.03797 13.75 9.91659V14.1666H9.625V19.8333H13.75V31.1666H19.25V19.8333H23.375L24.75 14.1666H19.25V9.91659C19.25 9.54086 19.3949 9.18053 19.6527 8.91485C19.9106 8.64917 20.2603 8.49992 20.625 8.49992H24.75V2.83325Z" stroke="#7562E0" stroke-width="2" stroke-linecap="round" stroke-linejoin="round"/>
<path d="M176.25 5.66662C176.25 5.66662 175.287 8.64162 173.5 10.4833C175.7 24.65 160.575 34.9916 148.75 26.9166C151.775 27.0583 154.8 26.0666 157 24.0833C150.125 21.9583 146.688 13.6 150.125 7.08328C153.15 10.7666 157.825 12.8916 162.5 12.75C161.263 6.79995 168 3.39995 172.125 7.36662C173.638 7.36662 176.25 5.66662 176.25 5.66662Z" stroke="#7562E0" stroke-width="2" stroke-linecap="round" stroke-linejoin="round"/>
<path d="M246.5 5.5H224.5C222.981 5.5 221.75 6.73122 221.75 8.25V24.75C221.75 26.2688 222.981 27.5 224.5 27.5H246.5C248.019 27.5 249.25 26.2688 249.25 24.75V8.25C249.25 6.73122 248.019 5.5 246.5 5.5Z" stroke="#7562E0" stroke-width="2" stroke-linecap="round" stroke-linejoin="round"/>
<path d="M249.25 9.625L236.916 17.4625C236.492 17.7285 236.001 17.8695 235.5 17.8695C234.999 17.8695 234.508 17.7285 234.084 17.4625L221.75 9.625" stroke="#7562E0" stroke-width="2" stroke-linecap="round" stroke-linejoin="round"/>
</svg>
